<svg xmlns="http://www.w3.org/2000/svg" viewBox="0 0 48 48"><rect width="51.6" height="13" x="-1.8" y="17.5" fill="#9a4c29" rx="2" ry="2" transform="rotate(-45 24 24)"/><path fill="#7d3327" d="M40.7,4.214L4.214,40.7l-1.639-1.639c-.781-.781-.781-2.047,0-2.828L36.233,2.575c.781-.781,2.047-.781,2.828,0l1.639,1.639Z"/><rect width="42.426" height="21.213" x="2.787" y="13.393" fill="#b5633a" rx="2" ry="2" transform="rotate(-45 24 24)"/><path fill="#9a4c29" d="M34.328,4.328L4.328,34.328l-1.414-1.414c-.781-.781-.781-2.047,0-2.828L30.086,2.914c.781-.781,2.047-.781,2.828,0l1.414,1.414Z"/><path fill="#cfe0f3" d="M42.814,20.186l-3.293-3.293c-.391-.391-1.024-.391-1.414,0l-21.213,21.213c-.391.391-.391,1.024,0,1.414l3.293,3.293,22.627-22.627Z"/><path fill="#08105e" d="M45.012,13.598l1.098-1.104c.573-.567.89-1.322.89-2.127s-.316-1.56-.886-2.122l-6.355-6.356c-.566-.573-1.321-.889-2.126-.889h0c-.805,0-1.56.316-2.123.887l-1.101,1.107-.787-.787c-1.169-1.167-3.071-1.169-4.242,0L2.207,29.378c-.566.567-.879,1.32-.879,2.122s.312,1.555.879,2.121l.787.787-1.104,1.098c-.573.567-.89,1.322-.89,2.127s.316,1.56.886,2.122l6.355,6.356c.566.573,1.321.889,2.126.889h0c.805,0,1.56-.316,2.119-.883l1.111-1.104.781.781c.585.584,1.353.876,2.121.876s1.536-.292,2.121-.877l27.172-27.172c.566-.566.879-1.32.879-2.121s-.312-1.555-.879-2.121l-.781-.781ZM36.93,3.295c.188-.19.437-.295.702-.295h0c.266,0,.516.105.708.299l6.364,6.365c.189.188.295.437.295.703s-.105.516-.302.71l-1.1,1.106-7.776-7.776,1.107-1.113ZM3.621,30.793L30.793,3.622c.195-.195.451-.292.707-.292s.512.097.707.292l1.484,1.484s.006.011.011.016c.005.005.011.006.016.01l2.368,2.368L7.5,36.086l-2.371-2.371s-.004-.008-.008-.012c-.004-.004-.008-.005-.012-.008l-1.488-1.488c-.189-.188-.293-.439-.293-.707s.104-.518.293-.707ZM11.07,44.705c-.188.19-.437.295-.702.295h0c-.266,0-.516-.105-.708-.299l-6.364-6.365c-.189-.188-.295-.437-.295-.703s.105-.516.298-.707l1.11-1.104,7.776,7.776-1.113,1.107ZM19.5,36.914l2.586,2.586-1.899,1.899-2.586-2.586,1.899-1.899ZM22.7,33.714l2.586,2.586-1.786,1.786-2.586-2.586,1.786-1.786ZM32.3,24.114l2.586,2.586-1.786,1.786-2.586-2.586,1.786-1.786ZM35.5,20.914l2.586,2.586-1.786,1.786-2.586-2.586,1.786-1.786ZM39.5,22.086l-2.586-2.586,1.899-1.899,2.586,2.586-1.899,1.899ZM29.1,27.314l2.586,2.586-1.786,1.786-2.586-2.586,1.786-1.786ZM25.9,30.514l2.586,2.586-1.786,1.786-2.586-2.586,1.786-1.786ZM44.379,17.207h0s-1.565,1.566-1.565,1.566l-2.586-2.586c-.779-.78-2.049-.78-2.828,0l-21.213,21.213c-.78.78-.78,2.049,0,2.829l2.586,2.585-1.565,1.565c-.391.391-1.023.39-1.414,0l-1.472-1.472s-.005-.01-.009-.014c-.004-.004-.01-.006-.015-.01l-5.383-5.383,28.586-28.586,5.384,5.384s.005.009.009.013c.004.004.009.005.013.009l1.473,1.473c.189.188.293.439.293.707s-.104.518-.293.707Z"/><circle cx="31" cy="8" r="1" fill="#08105e"/><circle cx="8" cy="31" r="1" fill="#08105e"/></svg>