<svg xmlns="http://www.w3.org/2000/svg" viewBox="0 0 48 48"><path fill="#ffa221" d="M14,3h5.604c2.523,0,4.967.885,6.905,2.5h0c1.938,1.615,4.382,2.5,6.905,2.5h3.58c2.378,0,3.81,2.634,2.519,4.63l-19.004,29.37h-8.51l24.727-30.049c.285-.347.005-.864-.441-.815l-3.362.374c-2.869.319-5.764-.281-8.27-1.713h0c-2.06-1.177-4.392-1.796-6.765-1.796h-3.889V3Z"/><path fill="#ff8200" d="M20.51 42l19.004-29.37c.418-.646.547-1.357.455-2.026l-23.921 31.396h4.462zM24.653 9.796c2.506 1.432 5.402 2.032 8.27 1.713l3.362-.374c.225-.025.407.095.496.264-.006-.388-.26-.773-.75-.814l-3.227-.269c-2.499-.208-4.908-1.026-7.018-2.382-2.473-1.59-5.351-2.435-8.291-2.435h-3.497v2.5h3.889c2.373 0 4.705.619 6.765 1.796z"/><rect width="12" height="4" x="10" y="42" fill="#ff8200" rx="1" ry="1"/><path fill="#ff6500" d="M21,42h-6c.552,0,1,.448,1,1v2c0,.552-.448,1-1,1h6c.552,0,1-.448,1-1v-2c0-.552-.448-1-1-1Z"/><rect width="4" height="7" x="10" y="2" fill="#ff8200" rx="1" ry="1"/><path fill="#ff6500" d="M13,6h-2c-.552,0-1-.448-1-1v3c0,.552.448,1,1,1h2c.552,0,1-.448,1-1v-3c0,.552-.448,1-1,1Z"/><path fill="#08105e" d="M40.505,9.088c-.711-1.308-2.025-2.088-3.514-2.088h-3.581c-2.285,0-4.51-.806-6.265-2.268-2.114-1.762-4.793-2.732-7.545-2.732h-4.879c-.347-.595-.985-1-1.722-1h-2c-1.103,0-2,.897-2,2v5c0,1.103.897,2,2,2v31c-1.103,0-2,.897-2,2v2c0,1.103.897,2,2,2h10c1.103,0,2-.897,2-2v-2c0-.688-.349-1.296-.879-1.656l18.229-28.171c.809-1.25.867-2.777.156-4.085ZM33,12.506c.011-.001.023-.001.034-.002l2.139-.238-2.173,2.641v-2.4ZM31,17.337l-2,2.43v-7.382c.66.11,1.327.178,2,.196v4.755ZM27,22.198l-2,2.43v-13.525c.65.318,1.318.583,2,.8v10.294ZM23,27.059l-2,2.43V9.398c.686.174,1.352.415,2,.702v16.959ZM19,31.92l-2,2.431V9h.889c.372,0,.742.04,1.111.073v22.847ZM11,3h2v5h-2V3ZM14.722,9h.278v27.781l-2,2.431V10c.737,0,1.375-.405,1.722-1ZM21,45h-10v-2h10v2ZM38.67,12.086l-18.709,28.914h-5.844l23.382-28.414c.39-.474.453-1.128.161-1.667-.292-.54-.871-.846-1.484-.776l-3.362.374c-2.677.295-5.327-.252-7.664-1.588-2.207-1.261-4.718-1.928-7.261-1.928h-2.889v-3h4.601c2.285,0,4.51.806,6.265,2.268,2.114,1.762,4.794,2.732,7.545,2.732h3.581c.744,0,1.401.39,1.757,1.044.355.654.327,1.417-.078,2.042Z"/></svg>