<svg xmlns="http://www.w3.org/2000/svg" viewBox="0 0 48 48"><path fill="#0d3b8d" d="m16.079,9h15.843c5.994,0,11.068,4.423,11.887,10.36l2.151,15.593c.251,1.821-.686,3.6-2.33,4.422h0c-1.875.938-4.153.382-5.386-1.313l-4.665-6.415c-.753-1.035-1.955-1.647-3.235-1.647h-12.686c-1.28,0-2.482.612-3.235,1.647l-4.665,6.415c-1.233,1.695-3.511,2.251-5.386,1.313h0c-1.644-.822-2.582-2.601-2.33-4.422l2.151-15.593c.819-5.938,5.894-10.36,11.887-10.36Z"/><path fill="#00286f" d="m41.939,36.604l-5.876-8.079c-.948-1.304-2.463-2.075-4.074-2.075h-15.978c-1.612,0-3.126.771-4.074,2.075l-5.876,8.079c-.713.98-1.708,1.641-2.798,1.973.319.318.69.59,1.108.799,1.875.938,4.153.382,5.386-1.313l4.665-6.415c.753-1.035,1.955-1.647,3.235-1.647h12.686c1.28,0,2.482.612,3.235,1.647l4.665,6.415c1.233,1.695,3.511,2.251,5.386,1.313.418-.209.789-.481,1.108-.799-1.091-.332-2.086-.993-2.798-1.973Z"/><circle cx="33.5" cy="16" r="1.5" fill="#ffc343"/><circle cx="33.5" cy="24" r="1.5" fill="#0ca0f2"/><circle cx="29.5" cy="20" r="1.5" fill="#ff3b65"/><circle cx="37.5" cy="20" r="1.5" fill="#05e594"/><path fill="#eff3f9" d="m18.5,18.5h-2.5v-2.5c0-.828-.672-1.5-1.5-1.5s-1.5.672-1.5,1.5v2.5h-2.5c-.828,0-1.5.672-1.5,1.5s.672,1.5,1.5,1.5h2.5v2.5c0,.828.672,1.5,1.5,1.5s1.5-.672,1.5-1.5v-2.5h2.5c.828,0,1.5-.672,1.5-1.5s-.672-1.5-1.5-1.5Z"/><path fill="#08105e" d="m6.296,40.833c-.801,0-1.611-.183-2.372-.562-2.029-1.015-3.185-3.206-2.874-5.453l2.151-15.593c.882-6.398,6.418-11.224,12.878-11.224h15.842c6.46,0,11.996,4.825,12.878,11.224l2.151,15.593c.311,2.247-.845,4.438-2.874,5.453-2.322,1.16-5.115.481-6.642-1.62l-4.665-6.414c-.562-.774-1.47-1.236-2.427-1.236h-12.686c-.957,0-1.864.462-2.427,1.236l-4.665,6.415c-1.026,1.412-2.626,2.182-4.27,2.182Zm9.783-30.833c-5.466,0-10.15,4.083-10.897,9.497l-2.151,15.593c-.192,1.397.526,2.76,1.788,3.391,1.441.72,3.18.298,4.13-1.007l4.665-6.415c.938-1.289,2.449-2.059,4.044-2.059h12.686c1.595,0,3.106.77,4.044,2.059l4.665,6.415c.949,1.306,2.687,1.728,4.13,1.007,1.262-.631,1.98-1.994,1.788-3.391l-2.151-15.593c-.747-5.414-5.432-9.497-10.897-9.497h-15.842Z"/><path fill="#08105e" d="M33.5 18.5c-1.379 0-2.5-1.122-2.5-2.5s1.121-2.5 2.5-2.5 2.5 1.122 2.5 2.5-1.121 2.5-2.5 2.5zm0-3c-.275 0-.5.224-.5.5s.225.5.5.5.5-.224.5-.5-.225-.5-.5-.5zM33.5 26.5c-1.379 0-2.5-1.122-2.5-2.5s1.121-2.5 2.5-2.5 2.5 1.122 2.5 2.5-1.121 2.5-2.5 2.5zm0-3c-.275 0-.5.224-.5.5s.225.5.5.5.5-.224.5-.5-.225-.5-.5-.5zM29.5 22.5c-1.379 0-2.5-1.122-2.5-2.5s1.121-2.5 2.5-2.5 2.5 1.122 2.5 2.5-1.121 2.5-2.5 2.5zm0-3c-.275 0-.5.224-.5.5s.225.5.5.5.5-.224.5-.5-.225-.5-.5-.5zM37.5 22.5c-1.379 0-2.5-1.122-2.5-2.5s1.121-2.5 2.5-2.5 2.5 1.122 2.5 2.5-1.121 2.5-2.5 2.5zm0-3c-.275 0-.5.224-.5.5s.225.5.5.5.5-.224.5-.5-.225-.5-.5-.5zM14.5 26.5c-1.379 0-2.5-1.122-2.5-2.5v-1.5h-1.5c-1.379 0-2.5-1.122-2.5-2.5s1.121-2.5 2.5-2.5h1.5v-1.5c0-1.378 1.121-2.5 2.5-2.5s2.5 1.122 2.5 2.5v1.5h1.5c1.379 0 2.5 1.122 2.5 2.5s-1.121 2.5-2.5 2.5h-1.5v1.5c0 1.378-1.121 2.5-2.5 2.5zm-4-7c-.275 0-.5.224-.5.5s.225.5.5.5h2.5c.553 0 1 .448 1 1v2.5c0 .276.225.5.5.5s.5-.224.5-.5v-2.5c0-.552.447-1 1-1h2.5c.275 0 .5-.224.5-.5s-.225-.5-.5-.5h-2.5c-.553 0-1-.448-1-1v-2.5c0-.276-.225-.5-.5-.5s-.5.224-.5.5v2.5c0 .552-.447 1-1 1h-2.5z"/></svg>