<svg xmlns="http://www.w3.org/2000/svg" viewBox="0 0 48 48"><rect width="46" height="32" x="1" y="8" fill="#1761b2" rx="4" ry="4"/><path fill="#0d3b8d" d="M44,37H4c-1.202,0-2.267-.541-3-1.38v.38c0,2.209,1.791,4,4,4h38c2.209,0,4-1.791,4-4v-.38c-.733.839-1.798,1.38-3,1.38Z" opacity=".65"/><circle cx="38" cy="18" r="5.5" fill="#cfe0f3"/><circle cx="38" cy="18" r="3" fill="#eff3f9"/><circle cx="10" cy="18" r="5.5" fill="#cfe0f3"/><circle cx="10" cy="18" r="3" fill="#eff3f9"/><path fill="#08105e" d="M43,7H5c-2.757,0-5,2.243-5,5v24c0,2.757,2.243,5,5,5h38c2.757,0,5-2.243,5-5V12c0-2.757-2.243-5-5-5ZM46,36c0,1.654-1.346,3-3,3H5c-1.654,0-3-1.346-3-3V12c0-1.654,1.346-3,3-3h38c1.654,0,3,1.346,3,3v24Z"/><path fill="#08105e" d="M38,11.5c-3.584,0-6.5,2.916-6.5,6.5s2.916,6.5,6.5,6.5,6.5-2.916,6.5-6.5-2.916-6.5-6.5-6.5ZM38,22.5c-2.481,0-4.5-2.019-4.5-4.5s2.019-4.5,4.5-4.5,4.5,2.019,4.5,4.5-2.019,4.5-4.5,4.5Z"/><circle cx="38" cy="18" r="1" fill="#08105e"/><path fill="#08105e" d="M34.5 26h-1c-.553 0-1 .448-1 1s.447 1 1 1h1c.553 0 1-.448 1-1s-.447-1-1-1zM34.5 30h-1c-.553 0-1 .448-1 1s.447 1 1 1h1c.553 0 1-.448 1-1s-.447-1-1-1zM34.5 34h-1c-.553 0-1 .448-1 1s.447 1 1 1h1c.553 0 1-.448 1-1s-.447-1-1-1zM38.5 26h-1c-.553 0-1 .448-1 1s.447 1 1 1h1c.553 0 1-.448 1-1s-.447-1-1-1zM38.5 30h-1c-.553 0-1 .448-1 1s.447 1 1 1h1c.553 0 1-.448 1-1s-.447-1-1-1zM38.5 34h-1c-.553 0-1 .448-1 1s.447 1 1 1h1c.553 0 1-.448 1-1s-.447-1-1-1zM42.5 26h-1c-.553 0-1 .448-1 1s.447 1 1 1h1c.553 0 1-.448 1-1s-.447-1-1-1zM42.5 30h-1c-.553 0-1 .448-1 1s.447 1 1 1h1c.553 0 1-.448 1-1s-.447-1-1-1zM42.5 34h-1c-.553 0-1 .448-1 1s.447 1 1 1h1c.553 0 1-.448 1-1s-.447-1-1-1zM10 11.5c-3.584 0-6.5 2.916-6.5 6.5s2.916 6.5 6.5 6.5 6.5-2.916 6.5-6.5-2.916-6.5-6.5-6.5zM10 22.5c-2.481 0-4.5-2.019-4.5-4.5s2.019-4.5 4.5-4.5 4.5 2.019 4.5 4.5-2.019 4.5-4.5 4.5z"/><circle cx="10" cy="18" r="1" fill="#08105e"/><path fill="#08105e" d="M6.5 26h-1c-.553 0-1 .448-1 1s.447 1 1 1h1c.553 0 1-.448 1-1s-.447-1-1-1zM6.5 30h-1c-.553 0-1 .448-1 1s.447 1 1 1h1c.553 0 1-.448 1-1s-.447-1-1-1zM6.5 34h-1c-.553 0-1 .448-1 1s.447 1 1 1h1c.553 0 1-.448 1-1s-.447-1-1-1zM10.5 26h-1c-.553 0-1 .448-1 1s.447 1 1 1h1c.553 0 1-.448 1-1s-.447-1-1-1zM10.5 30h-1c-.553 0-1 .448-1 1s.447 1 1 1h1c.553 0 1-.448 1-1s-.447-1-1-1zM10.5 34h-1c-.553 0-1 .448-1 1s.447 1 1 1h1c.553 0 1-.448 1-1s-.447-1-1-1zM14.5 26h-1c-.553 0-1 .448-1 1s.447 1 1 1h1c.553 0 1-.448 1-1s-.447-1-1-1zM14.5 30h-1c-.553 0-1 .448-1 1s.447 1 1 1h1c.553 0 1-.448 1-1s-.447-1-1-1zM14.5 34h-1c-.553 0-1 .448-1 1s.447 1 1 1h1c.553 0 1-.448 1-1s-.447-1-1-1zM19.5 15h1c.553 0 1-.448 1-1s-.447-1-1-1h-1c-.553 0-1 .448-1 1s.447 1 1 1zM19.5 19h1c.553 0 1-.448 1-1s-.447-1-1-1h-1c-.553 0-1 .448-1 1s.447 1 1 1zM19.5 23h1c.553 0 1-.448 1-1s-.447-1-1-1h-1c-.553 0-1 .448-1 1s.447 1 1 1zM23.5 15h1c.553 0 1-.448 1-1s-.447-1-1-1h-1c-.553 0-1 .448-1 1s.447 1 1 1zM23.5 19h1c.553 0 1-.448 1-1s-.447-1-1-1h-1c-.553 0-1 .448-1 1s.447 1 1 1zM23.5 23h1c.553 0 1-.448 1-1s-.447-1-1-1h-1c-.553 0-1 .448-1 1s.447 1 1 1zM27.5 15h1c.553 0 1-.448 1-1s-.447-1-1-1h-1c-.553 0-1 .448-1 1s.447 1 1 1zM27.5 19h1c.553 0 1-.448 1-1s-.447-1-1-1h-1c-.553 0-1 .448-1 1s.447 1 1 1zM27.5 23h1c.553 0 1-.448 1-1s-.447-1-1-1h-1c-.553 0-1 .448-1 1s.447 1 1 1zM25 32v-5c0-.552-.447-1-1-1s-1 .448-1 1v5c-.553 0-1 .448-1 1s.447 1 1 1v1c0 .552.447 1 1 1s1-.448 1-1v-1c.553 0 1-.448 1-1s-.447-1-1-1zM21 29v-2c0-.552-.447-1-1-1s-1 .448-1 1v2c-.553 0-1 .448-1 1s.447 1 1 1v4c0 .552.447 1 1 1s1-.448 1-1v-4c.553 0 1-.448 1-1s-.447-1-1-1zM29 28v-1c0-.552-.447-1-1-1s-1 .448-1 1v1c-.553 0-1 .448-1 1s.447 1 1 1v5c0 .552.447 1 1 1s1-.448 1-1v-5c.553 0 1-.448 1-1s-.447-1-1-1z"/></svg>