<svg xmlns="http://www.w3.org/2000/svg" viewBox="0 0 48 48"><circle cx="24" cy="24" r="21" fill="#eff3f9"/><circle cx="24" cy="24" r="14" fill="#cfe0f3"/><path fill="#8c94af" d="m27,25c0,2.37,1.65,4.35,3.865,4.865l-1.019,14.293c1.834-.531,3.557-1.31,5.147-2.29l-.858-12.003c2.215-.515,3.865-2.495,3.865-4.865v-10h-11v10Z"/><path fill="#6f7792" d="m37.72,26.641c-.784.23-1.611.359-2.47.359-3.817,0-7.054-2.448-8.25-5.857v3.857c0,2.37,1.65,4.35,3.865,4.865l-1.019,14.293c1.834-.531,3.557-1.31,5.147-2.29l-.858-12.003c1.677-.39,3.027-1.621,3.585-3.224Z"/><path fill="#8fa5a5" d="m15.5,14c-5,0-6.5,7.41-6.5,11,0,2.99,2.02,5.5,4.765,6.26l-.758,10.608c1.59.98,3.313,1.759,5.147,2.29l-.919-12.898c2.745-.76,4.765-3.27,4.765-6.26,0-3.59-1.5-11-6.5-11Z"/><path fill="#8c94af" d="m15.5,14c-5,0-6.5,7.41-6.5,11,0,2.99,2.02,5.5,4.765,6.26l-.758,10.608c1.59.98,3.313,1.759,5.147,2.29l-.919-12.898c2.745-.76,4.765-3.27,4.765-6.26,0-3.59-1.5-11-6.5-11Z"/><path fill="#6f7792" d="m21.88,26.204c-1.107.506-2.333.796-3.63.796-4.199,0-7.704-2.959-8.551-6.905-.496,1.78-.699,3.597-.699,4.905,0,2.99,2.02,5.5,4.765,6.26l-.758,10.608c1.59.98,3.313,1.759,5.147,2.29l-.919-12.898c2.366-.655,4.186-2.613,4.645-5.056Z"/><path fill="#08105e" d="m24,46c-2.093,0-4.153-.291-6.124-.865-.402-.117-.688-.472-.718-.889l-.92-12.916c-.034-.475.271-.908.73-1.035,2.373-.657,4.031-2.834,4.031-5.296,0-3.263-1.345-10-5.5-10s-5.5,6.737-5.5,10c0,2.461,1.658,4.639,4.031,5.296.459.127.765.56.73,1.035l-.76,10.635c-.024.349-.229.659-.541.818-.312.159-.683.145-.98-.038-6.562-4.038-10.48-11.046-10.48-18.747C2,11.869,11.869,2,24,2s22,9.869,22,22c0,7.701-3.918,14.708-10.48,18.747-.298.184-.671.198-.98.038-.312-.159-.517-.47-.541-.818l-.86-12.03c-.035-.491.291-.934.771-1.045,1.82-.423,3.092-2.023,3.092-3.891v-10c0-.552.447-1,1-1s1,.448,1,1v10c0,2.51-1.53,4.698-3.812,5.584l.681,9.518c5.121-3.763,8.131-9.667,8.131-16.102,0-11.028-8.972-20-20-20S4,12.972,4,24c0,6.435,3.01,12.338,8.131,16.102l.581-8.143c-2.812-1.127-4.712-3.88-4.712-6.958,0-4.64,2.036-12,7.5-12s7.5,7.36,7.5,12c0,3.078-1.901,5.832-4.712,6.958l.814,11.438c3.17.802,6.625.802,9.795,0l.914-12.812c-2.281-.886-3.812-3.074-3.812-5.584v-10c0-.552.447-1,1-1s1,.448,1,1v10c0,1.868,1.271,3.468,3.092,3.891.479.111.806.555.771,1.045l-1.021,14.31c-.029.417-.315.772-.718.889-1.971.574-4.031.865-6.124.865Z"/><path fill="#08105e" d="M34.25 22c-.553 0-1-.448-1-1v-6c0-.552.447-1 1-1s1 .448 1 1v6c0 .552-.447 1-1 1zM30.75 22c-.553 0-1-.448-1-1v-6c0-.552.447-1 1-1s1 .448 1 1v6c0 .552-.447 1-1 1z"/></svg>