<svg xmlns="http://www.w3.org/2000/svg" viewBox="0 0 48 48"><path fill="#ffc343" d="M44.121,8.121l-4.243-4.243L3.912,39.845c-.369.369-.859.647-1.381.629-.501-.017-1.005.215-1.315.711-.372.597-.23,1.386.268,1.883l3.447,3.447c.497.497,1.287.64,1.884.268.496-.31.728-.814.711-1.315-.017-.522.26-1.012.629-1.381L44.121,8.121Z"/><path fill="#ffa221" d="M44.121,8.121l-2.121-2.121L5.328,42.672l-.488-.488c.037.556-.148,1.124-.573,1.548-.425.425-.993.61-1.548.573l2.255,2.256c.586.586,1.536.586,2.121,0,.46-.46.545-1.14.282-1.696L44.121,8.121Z"/><path fill="#ffc343" d="M46.415,2.36l-.774-.774c-.612-.612-1.55-.761-2.323-.367l-3.309,1.686c-.755.384-1.368.998-1.752,1.752l-.877,1.722,4.243,4.243,1.722-.877c.755-.384,1.368-.998,1.752-1.752l1.686-3.309c.394-.773.245-1.71-.367-2.323Z"/><path fill="#ffa221" d="M46.415,2.36l-.726-.726c-.057.878-.385,1.743-1.023,2.439l-1.619,1.768c-.797.87-1.631,1.705-2.501,2.501l-.627.574,1.703,1.703,1.722-.877c.755-.384,1.368-.998,1.752-1.752l1.686-3.309c.394-.773.245-1.71-.367-2.323Z"/><path fill="#08105e" d="M47.12,1.655l-.774-.775c-.921-.922-2.321-1.143-3.483-.552l-3.311,1.687c-.949.484-1.706,1.241-2.19,2.19l-.282.554c-.372-.179-.828-.125-1.137.184-.391.39-.391,1.023,0,1.414l.021.021-4.586,4.586-.021-.021c-.391-.391-1.023-.391-1.414,0-.391.39-.391,1.023,0,1.414l.021.021L10.378,31.964l-.021-.021c-.391-.391-1.023-.391-1.414,0-.391.39-.391,1.023,0,1.414l.021.021-3.586,3.586-.021-.021c-.391-.391-1.023-.391-1.414,0-.391.39-.391,1.023,0,1.414l.021.021-.767.767c-.217.217-.454.339-.642.337-.894-.033-1.717.412-2.197,1.182-.603.967-.431,2.279.409,3.12l3.448,3.447c.504.505,1.178.769,1.845.769.445,0,.887-.117,1.273-.359.771-.48,1.213-1.301,1.183-2.197-.006-.184.12-.423.337-.641l.768-.767.021.021c.195.195.451.293.707.293s.512-.098.707-.293c.391-.39.391-1.023,0-1.414l-.021-.021,3.586-3.586.021.021c.195.195.451.293.707.293s.512-.098.707-.293c.391-.39.391-1.023,0-1.414l-.021-.021,19.586-19.586.021.021c.195.195.451.293.707.293s.512-.098.707-.293c.391-.39.391-1.023,0-1.414l-.021-.021,4.586-4.586.021.021c.195.195.451.293.707.293s.512-.098.707-.293c.309-.308.364-.764.184-1.137l.555-.282c.949-.484,1.706-1.241,2.19-2.19l1.688-3.312c.591-1.161.368-2.56-.553-3.482ZM7.438,43.389c-.618.62-.945,1.373-.92,2.121.004.126-.034.304-.242.434-.18.112-.465.056-.647-.126l-3.448-3.447c-.183-.184-.238-.468-.126-.648.123-.197.291-.242.415-.242.007,0,.013,0,.019,0,.722.033,1.501-.302,2.122-.922l.767-.767,2.828,2.829-.768.768ZM9.621,41.207l-2.828-2.829,3.586-3.586,2.828,2.829-3.586,3.586ZM14.621,36.207l-2.828-2.829L31.378,13.792l2.829,2.829-19.586,19.586ZM35.621,15.208l-2.829-2.829,4.586-4.586,2.829,2.829-4.586,4.586ZM45.89,4.229l-1.687,3.311c-.291.57-.746,1.025-1.316,1.316l-1.072.546-3.217-3.218.546-1.071c.291-.57.746-1.025,1.316-1.316l3.311-1.687c.388-.198.854-.124,1.16.184l.774.775c.307.307.381.773.185,1.16Z"/><circle cx="31" cy="17" r="1" fill="#08105e"/><circle cx="28" cy="20" r="1" fill="#08105e"/><circle cx="25" cy="23" r="1" fill="#08105e"/><circle cx="22" cy="26" r="1" fill="#08105e"/><circle cx="19" cy="29" r="1" fill="#08105e"/><circle cx="16" cy="32" r="1" fill="#08105e"/><path fill="#08105e" d="M36.293,10.293l-1,1c-.391.391-.391,1.023,0,1.414.195.195.451.293.707.293s.512-.098.707-.293l1-1c.391-.391.391-1.023,0-1.414s-1.023-.391-1.414,0Z"/><circle cx="10" cy="38" r="1" fill="#08105e"/></svg>