<svg xmlns="http://www.w3.org/2000/svg" viewBox="0 0 48 48"><path fill="#ff8200" d="m25.192,20.025c-3.57-3.041-6.673-3.611-8.851-1.433-.397.397-.71.863-.932,1.364-.884,2.025-2.658,3.479-4.836,3.75-2.136.257-4.147,1.169-5.72,2.741-4.105,4.105-3.959,9.526,1.607,15.092,5.566,5.566,10.987,5.713,15.092,1.607,1.573-1.573,2.484-3.583,2.741-5.72.271-2.178,1.726-3.952,3.75-4.836.501-.223.967-.536,1.364-.932,2.178-2.178,1.607-5.281-1.433-8.851l-2.783-2.783Z"/><path fill="#ff6500" d="m20.5,38c-7.371,0-13.443-5.504-14.365-12.624-.452.315-.881.671-1.282,1.072-4.105,4.105-3.959,9.526,1.607,15.092,5.566,5.566,10.987,5.713,15.092,1.607,1.559-1.559,2.466-3.548,2.732-5.663-1.209.327-2.473.516-3.785.516Z"/><path fill="#b5633a" d="m17.626,27.591l18.754-18.754.404-1.211c.188-.578.515-1.099.946-1.531l3.521-3.521c.765-.765,2.018-.765,2.783,0l1.392,1.392c.765.765.765,2.018,0,2.783l-3.521,3.521c-.431.431-.953.758-1.531.946l-1.211.404-18.727,18.727-2.81-2.756Z"/><circle cx="19.333" cy="28.667" r="3.444" fill="#7d3327"/><path fill="#08105e" d="m9.255,34.57c-.391-.391-1.023-.391-1.414,0s-.391,1.023,0,1.414l4.871,4.87c.195.195.451.293.707.293s.512-.098.707-.293c.391-.391.391-1.023,0-1.414l-4.871-4.87Z"/><path fill="#08105e" d="m46.133,3.259l-1.392-1.392c-1.156-1.157-3.041-1.157-4.197,0l-3.521,3.521c-.546.546-.958,1.213-1.188,1.922l-.328.987-10.39,10.389c-5.011-3.885-8.076-2.211-9.483-.801-.478.477-.86,1.037-1.143,1.671-.766,1.757-2.277,2.938-4.038,3.157-2.439.294-4.62,1.34-6.307,3.027-2.277,2.277-3.354,4.971-3.113,7.79.248,2.899,1.836,5.832,4.721,8.716,2.884,2.885,5.816,4.473,8.716,4.721.259.021.517.033.772.033,2.537,0,4.949-1.078,7.018-3.146,1.688-1.687,2.733-3.867,3.026-6.302.22-1.766,1.4-3.277,3.165-4.046.627-.279,1.187-.662,1.664-1.14,1.409-1.409,3.082-4.473-.801-9.483l10.39-10.389.979-.327c.716-.232,1.383-.644,1.93-1.19l3.521-3.521c.56-.559.867-1.305.867-2.099s-.308-1.54-.867-2.099Zm-9.752,6.992l1.369,1.369-14.67,14.669c-.172-.27-.369-.529-.605-.765-.236-.236-.494-.433-.765-.605l14.67-14.669Zm-17.048,15.973c.626,0,1.252.238,1.729.715.953.953.953,2.504,0,3.457s-2.504.953-3.457,0-.953-2.504,0-3.457c.477-.477,1.103-.715,1.729-.715Zm9.368,4.729c-.303.303-.66.547-1.056.723-2.412,1.052-4.036,3.156-4.345,5.634-.239,1.989-1.088,3.764-2.455,5.131-1.874,1.874-3.97,2.725-6.206,2.534-2.416-.206-4.931-1.6-7.472-4.142-2.542-2.541-3.936-5.056-4.142-7.472-.192-2.244.661-4.332,2.534-6.206,1.366-1.366,3.141-2.216,5.136-2.456,2.473-.308,4.577-1.932,5.626-4.336.179-.402.423-.76.726-1.063,1.92-1.92,4.539-.775,6.648.808l-4.139,4.139c-1.212-.061-2.443.355-3.367,1.279-1.733,1.732-1.733,4.553,0,6.285.866.866,2.005,1.3,3.143,1.3s2.276-.434,3.143-1.3c.924-.923,1.34-2.155,1.279-3.367l4.138-4.138c1.583,2.109,2.727,4.729.809,6.647ZM44.719,6.042l-3.521,3.521c-.324.324-.716.567-1.141.705l-.624.208-1.909-1.909.21-.632c.136-.417.378-.809.702-1.133l3.521-3.521c.377-.377.992-.377,1.369,0l1.392,1.392c.182.181.281.424.281.684s-.1.503-.281.685Z"/></svg>