<svg xmlns="http://www.w3.org/2000/svg" viewBox="0 0 48 48"><path fill="#eff3f9" d="M11 39h-3c-2.761 0-5-2.239-5-5v-1c0-2.761 2.239-5 5-5h3v11zM37 39h3c2.761 0 5-2.239 5-5v-1c0-2.761-2.239-5-5-5h-3v11z"/><path fill="#cfe0f3" d="M3.101 32c-.066.323-.101.657-.101 1v1c0 2.761 2.239 5 5 5h3v-3h-3c-2.419 0-4.436-1.718-4.899-4zM40 36h-3v3h3c2.761 0 5-2.239 5-5v-1c0-.343-.035-.677-.101-1-.463 2.282-2.48 4-4.899 4z"/><rect width="6" height="15" x="9" y="26" fill="#0ca0f2" rx="2" ry="2"/><rect width="6" height="15" x="33" y="26" fill="#0ca0f2" rx="2" ry="2"/><path fill="#0075d3" d="M13 38h-2c-1.105 0-2-.895-2-2v3c0 1.105.895 2 2 2h2c1.105 0 2-.895 2-2v-3c0 1.105-.895 2-2 2zM37 38h-2c-1.105 0-2-.895-2-2v3c0 1.105.895 2 2 2h2c1.105 0 2-.895 2-2v-3c0 1.105-.895 2-2 2z"/><circle cx="22.5" cy="38" r="2" fill="#cfe0f3"/><path fill="#08105e" d="m42,27.35v-4.35c0-9.925-8.075-18-18-18S6,13.075,6,23v4.35c-2.327.826-4,3.043-4,5.65v1c0,3.309,2.691,6,6,6h.184c.414,1.161,1.514,2,2.816,2h2c1.654,0,3-1.346,3-3v-11c0-1.654-1.346-3-3-3h-2c-1.302,0-2.402.839-2.816,2h-.184v-4c0-8.822,7.178-16,16-16s16,7.178,16,16v4h-.184c-.414-1.161-1.514-2-2.816-2h-2c-1.654,0-3,1.346-3,3v11c0,1.654,1.346,3,3,3h2c1.302,0,2.402-.839,2.816-2h.184c3.309,0,6-2.691,6-6v-1c0-2.607-1.673-4.824-4-5.65Zm-38,6.65v-1c0-2.206,1.794-4,4-4v9c-2.206,0-4-1.794-4-4Zm6-6c0-.551.448-1,1-1h2c.552,0,1,.449,1,1v11c0,.551-.448,1-1,1h-2c-.552,0-1-.449-1-1v-11Zm28,11c0,.551-.448,1-1,1h-2c-.552,0-1-.449-1-1v-11c0-.551.448-1,1-1h2c.552,0,1,.449,1,1v11Zm6-5c0,2.206-1.794,4-4,4v-9c2.206,0,4,1.794,4,4v1Z"/><path fill="#08105e" d="m25.055,28.168c-.307-.205-.702-.224-1.026-.05-.325.174-.528.513-.528.882v6.184c-.314-.112-.648-.184-1-.184-1.654,0-3,1.346-3,3s1.346,3,3,3,3-1.346,3-3v-7.131l1.445.963c.46.306,1.08.182,1.387-.277.307-.459.183-1.081-.277-1.387l-3-2Zm-2.555,10.832c-.552,0-1-.449-1-1s.448-1,1-1,1,.449,1,1-.448,1-1,1Z"/></svg>