<svg xmlns="http://www.w3.org/2000/svg" viewBox="0 0 48 48"><path fill="#eff3f9" d="M47,33v8c0,1.1-.9,2-2,2H3c-1.1,0-2-.9-2-2v-8h46Z"/><path fill="#cfe0f3" d="M45,40H3c-1.1,0-2-.9-2-2v3c0,1.1.9,2,2,2h42c1.1,0,2-.9,2-2v-3c0,1.1-.9,2-2,2Z"/><path fill="#0d3b8d" d="M6 33v5.5c0 .276.224.5.5.5h2c.276 0 .5-.224.5-.5v-5.5h-3zM13 33v5.5c0 .276.224.5.5.5h2c.276 0 .5-.224.5-.5v-5.5h-3zM25 33v5.5c0 .276.224.5.5.5h2c.276 0 .5-.224.5-.5v-5.5h-3zM32 33v5.5c0 .276.224.5.5.5h2c.276 0 .5-.224.5-.5v-5.5h-3zM39 33v5.5c0 .276.224.5.5.5h2c.276 0 .5-.224.5-.5v-5.5h-3z"/><path fill="#00286f" d="M47,29.15v3.85H1v-13.77c0-7.86,6.37-14.23,14.23-14.23,2.42,0,4.76.62,6.82,1.74s3.84,2.76,5.15,4.8c1.54,2.4,3.51,4.47,5.78,6.12,2.26,1.66,4.84,2.9,7.59,3.63l.49.13c3.5.93,5.94,4.1,5.94,7.73Z"/><path fill="#0d3b8d" d="M41.06,21.42l-.49-.13c-2.75-.73-5.33-1.97-7.59-3.63-2.27-1.65-4.24-3.72-5.78-6.12-1.31-2.04-3.09-3.68-5.15-4.8s-4.4-1.74-6.82-1.74C7.37,5,1,11.37,1,19.23v3.984c0-7.298,5.916-13.214,13.214-13.214,3.688,0,7.208,1.541,9.71,4.251l2.148,2.328c3.852,4.174,8.927,7.021,14.496,8.135,3.739.748,6.431,4.031,6.431,7.845v-3.408c0-3.63-2.44-6.8-5.94-7.73Z"/><path fill="#08105e" d="M41.319,20.45l-.487-.13c-5.288-1.41-9.83-4.722-12.79-9.326-2.815-4.38-7.605-6.995-12.812-6.995C6.833,4,0,10.833,0,19.23v21.77c0,1.654,1.346,3,3,3h42c1.654,0,3-1.346,3-3v-11.854c0-4.071-2.747-7.647-6.681-8.696ZM15.231,6c4.523,0,8.683,2.271,11.129,6.076,3.229,5.024,8.186,8.638,13.957,10.177l.487.13c3.06.815,5.196,3.597,5.196,6.763v2.854H2v-12.77c0-7.295,5.936-13.23,13.231-13.23ZM39.5,42h-5v-2c.827,0,1.5-.673,1.5-1.5v-4.5h2v4.5c0,.827.673,1.5,1.5,1.5v2ZM8,34v4h-1v-4h1ZM10,38.5v-4.5h2v4.5c0,.827.673,1.5,1.5,1.5v2h-5v-2c.827,0,1.5-.673,1.5-1.5ZM15,38h-1v-4h1v4ZM15.5,40c.827,0,1.5-.673,1.5-1.5v-4.5h2.5v8h-4v-2ZM21.5,34h2.5v4.5c0,.827.673,1.5,1.5,1.5v2h-4v-8ZM27,38h-1v-4h1v4ZM27.5,40c.827,0,1.5-.673,1.5-1.5v-4.5h2v4.5c0,.827.673,1.5,1.5,1.5v2h-5v-2ZM34,38h-1v-4h1v4ZM41,38h-1v-4h1v4ZM2,41v-7h3v4.5c0,.827.673,1.5,1.5,1.5v2h-3.5c-.551,0-1-.449-1-1ZM45,42h-3.5v-2c.827,0,1.5-.673,1.5-1.5v-4.5h3v7c0,.551-.449,1-1,1Z"/></svg>