<svg xmlns="http://www.w3.org/2000/svg" viewBox="0 0 48 48"><path fill="#b5633a" d="M28.351,24.042c2.426,2.426,2.426,6.36,0,8.786l-1.012,1.012c-.277.277-.688.374-1.06.25h0c-.974-.325-2.048-.071-2.774.655l-2.153,2.153c-1.068,1.068-1.332,2.699-.657,4.049h0c.199.399.121.88-.194,1.195l-3.037,3.037c-1.437,1.437-3.485,2.08-5.485,1.723h0c-5.548-.99-9.892-5.334-10.882-10.882h0c-.357-2,.286-4.048,1.723-5.485l3.037-3.037c.315-.315.797-.393,1.195-.194h0c1.35.675,2.981.411,4.049-.657l2.153-2.153c.726-.726.98-1.8.655-2.774h0c-.124-.372-.027-.782.25-1.06l1.012-1.012c2.426-2.426,6.36-2.426,8.786,0l4.393,4.393Z"/><path fill="#9a4c29" d="M28.351,24.042l-3-3c2.426,2.426,2.426,6.36,0,8.786l-.376.376c-.42.42-.916.758-1.461.996-.545.238-1.04.576-1.461.996l-3.62,3.62c-.558.558-.88,1.308-.901,2.097-.02.789-.343,1.539-.9,2.097l-2.168,2.168c-1.437,1.437-3.485,2.08-5.485,1.723-2.043-.365-3.92-1.187-5.529-2.353,2.002,2.761,5.023,4.727,8.529,5.353,2,.357,4.048-.286,5.485-1.723l3.037-3.037c.315-.315.393-.797.194-1.195-.675-1.35-.411-2.981.657-4.049l2.153-2.153c.726-.726,1.8-.98,2.774-.655.372.124.782.027,1.06-.25l1.012-1.012c2.426-2.426,2.426-6.36,0-8.786Z"/><path fill="#592725" d="M10.469 40.733c.256-.178.288-.544.068-.764l-2.506-2.506c-.22-.22-.586-.188-.764.068l-3.275 4.712c.533.642 1.124 1.233 1.766 1.766l4.712-3.275zM46.707 1.55l-.257-.257c-.337-.337-.864-.389-1.26-.126l-2.507 1.664c-.449.298-.546.873-.295 1.316l-23.554 22.232c-.41.387-.419 1.036-.021 1.434l1.373 1.373c.398.398 1.047.389 1.434-.021L43.853 5.612c.443.251 1.018.154 1.316-.295l1.664-2.507c.263-.397.211-.924-.126-1.26z"/><path fill="#08105e" d="M12.957,33.543c-.391-.391-1.023-.391-1.414,0s-.391,1.023,0,1.414l1.5,1.5c.195.195.451.293.707.293s.512-.098.707-.293c.391-.391.391-1.023,0-1.414l-1.5-1.5Z"/><path fill="#08105e" d="M47.416.842l-.258-.258c-.671-.669-1.73-.776-2.521-.251l-2.508,1.664c-.501.333-.823.868-.883,1.467-.013.127-.007.253.004.378l-.512.484-.532-.532c-.391-.391-1.023-.391-1.414,0-.391.39-.391,1.023,0,1.414l.491.491-.603.569-.474-.474c-.391-.391-1.023-.391-1.414,0s-.391,1.023,0,1.414l.433.433-12.276,11.587-.283-.283c-1.805-1.806-4.335-2.446-6.661-1.934l-8.265-8.265c-1.298-1.299-3.207-1.803-4.978-1.321-.514.141-.918.549-1.054,1.064-.136.515.014,1.068.39,1.443l9.688,9.688-.334.334c-.383.382-.594.893-.594,1.438,0,.19.028.385.101.644.202.613.04,1.298-.42,1.751l-2.148,2.158c-.756.757-1.953.945-2.895.473-.797-.399-1.744-.243-2.345.377l-3.037,3.037c-1.364,1.353-2.116,3.16-2.116,5.09,0,.439.039.871.115,1.277.527,2.93,1.913,5.585,4.008,7.68,2.095,2.095,4.751,3.48,7.681,4.007.426.077.854.114,1.278.114,1.896,0,3.732-.749,5.085-2.111l3.021-3.021c.395-.375.611-.888.611-1.446,0-.338-.076-.653-.214-.915-.481-.97-.292-2.134.469-2.896l2.169-2.159c.427-.436,1.065-.628,1.748-.409.737.238,1.532.049,2.075-.494l.335-.335,6.544,6.544c.779.78,2.049.78,2.828,0l.586-.586,2.293,2.293c.195.195.451.293.707.293s.512-.098.707-.293c.391-.391.391-1.023,0-1.414l-11.049-11.049c.112-.509.175-1.031.175-1.564,0-1.926-.752-3.738-2.116-5.102l-.284-.284,11.588-12.276.433.433c.195.195.451.293.707.293s.512-.098.707-.293c.391-.391.391-1.023,0-1.414l-.474-.474.569-.603.491.491c.195.195.451.293.707.293s.512-.098.707-.293c.391-.39.391-1.023,0-1.414l-.531-.532.487-.515c.058.005.114.017.172.017.066,0,.134-.003.2-.01.601-.06,1.136-.382,1.469-.884l1.664-2.507c.525-.79.419-1.851-.251-2.52ZM25.064,24.067l-1.13-1.13L42.324,5.578l.097.097-17.357,18.392ZM24.535,27.539l.569-.603,3.612,3.612c-.117.263-.248.521-.409.763l-3.772-3.772ZM23.122,26.125l-1.246-1.246.603-.569,1.212,1.212-.569.603ZM20.421,26.253l1.327,1.327-.851.902-1.381-1.375.905-.854ZM21.064,22.896l-.603.569-3.771-3.771c.245-.162.505-.288.768-.404l3.606,3.606ZM23.253,20.358l.242.243-.976.922-2.661-2.661c1.236.069,2.453.555,3.395,1.497ZM8.327,10.159l7.641,7.641c-.243.14-.478.295-.707.465L6.242,9.246c.774.033,1.522.351,2.085.913ZM5.537,42.464c-.096-.096-.183-.199-.275-.297l2.484-3.574,1.661,1.661-3.575,2.485c-.098-.092-.2-.178-.295-.274ZM26.586,33.139c-1.402-.449-2.847-.05-3.781.903l-2.162,2.152c-1.371,1.373-1.712,3.463-.85,5.24l-3.043,3.042c-1.194,1.205-2.91,1.744-4.593,1.44-1.695-.305-3.279-.95-4.686-1.882l3.568-2.48c.366-.254.6-.655.639-1.1.039-.444-.119-.879-.434-1.193l-2.506-2.506c-.314-.315-.741-.473-1.194-.434-.444.04-.845.272-1.099.638l-2.481,3.569c-.932-1.407-1.577-2.992-1.883-4.691-.055-.292-.082-.601-.082-.916,0-1.393.541-2.696,1.527-3.673l3.075-3.042c1.703.852,3.85.508,5.206-.849l2.144-2.153c.99-.977,1.347-2.466.915-3.835l.335-.335,3.804,3.804-.866.817c-.394.374-.613.88-.621,1.424-.007.537.206,1.061.583,1.438l1.38,1.379c.372.372.886.583,1.413.583h.025c.544-.007,1.05-.228,1.427-.624l.814-.863,3.792,3.792-.368.354ZM36.926,38.757l-.586.586-6.603-6.603c.17-.227.326-.462.467-.705l6.722,6.722ZM27.643,24.749c.917.917,1.431,2.118,1.502,3.399l-2.667-2.667.921-.976.244.244ZM44.339,4.764h-.002s-1.101-1.102-1.101-1.102l2.507-1.665.258.258-1.662,2.509Z"/><path fill="#08105e" d="M18.005 34.034c-.552.015-.986.476-.972 1.027.014.46-.15.884-.461 1.194l-.651.651c-.693.693-1.074 1.664-1.047 2.664.016.542.46.972.999.972.01 0 .02 0 .029 0 .552-.015.986-.476.972-1.027-.014-.459.15-.883.461-1.194l.651-.651c.693-.693 1.074-1.664 1.047-2.664-.016-.552-.469-1.011-1.028-.972zM12.043 31.129c.399-.399.934-.641 1.466-.664.552-.023.98-.489.957-1.041-.022-.552-.478-.971-1.041-.958-1.041.043-2.034.486-2.797 1.248l-.747.748c-.399.399-.934.642-1.466.664-.552.023-.98.489-.957 1.042.022.537.466.958.998.958.015 0 .029 0 .043 0 1.042-.044 2.035-.487 2.797-1.248l.747-.748z"/></svg>